<svg xmlns="http://www.w3.org/2000/svg" xmlns:xlink="http://www.w3.org/1999/xlink" version="1.1" x="0px" y="0px" viewBox="0 0 48 48" enable-background="new 0 0 48 48" xml:space="preserve"><g><g><path fill="#000000" d="M33.5,47.5h-19c-1.1,0-2-0.9-2-2v-5.9c0-1.1,0.9-2,2-2s2,0.9,2,2v3.9h15.1v-3.9c0-1.1,0.9-2,2-2    c1.1,0,2,0.9,2,2v5.9C35.5,46.6,34.6,47.5,33.5,47.5z"></path></g><path fill="#000000" d="M39.9,11C37.8,4.7,31.4,0.5,24,0.5C16.6,0.5,10.2,4.7,8.1,11c-4.5,1.5-7.6,5.3-7.6,9.7   C0.5,26.4,5.7,31,12,31h4.4c-0.4-0.2-0.9-0.5-1.2-0.9c-0.9-1-1.4-2.2-1.3-3.5c0-1.3,0.6-2.5,1.5-3.4l5.3-5c0.9-0.9,2.1-1.3,3.3-1.3   s2.4,0.5,3.3,1.3l5.3,5c1,0.9,1.5,2.1,1.5,3.4c0,1.3-0.4,2.6-1.3,3.5c-0.3,0.4-0.8,0.7-1.2,0.9H36c6.3,0,11.5-4.6,11.5-10.4   C47.5,16.3,44.4,12.4,39.9,11z"></path><path fill="#000000" d="M30.6,25.4l-5.3-5c-0.8-0.7-1.9-0.7-2.7,0l-5.3,5c-0.8,0.7-0.8,2-0.1,2.8c0.7,0.8,2,0.8,2.8,0.1l2-1.9v10.7   c0,1.1,0.9,2,2,2s2-0.9,2-2V26.4l2,1.9c0.4,0.4,0.9,0.5,1.3,0.5c0.5,0,1-0.2,1.4-0.6C31.5,27.3,31.4,26.1,30.6,25.4z"></path></g></svg>