<svg xmlns="http://www.w3.org/2000/svg" xmlns:xlink="http://www.w3.org/1999/xlink" version="1.1" x="0px" y="0px" viewBox="0 0 100 100" enable-background="new 0 0 100 100" xml:space="preserve"><g><path fill-rule="evenodd" clip-rule="evenodd" d="M87.791,52.818c1.826,1.811,3.208,3.762,4.356,5.875   c0.285,0.527,0.429,1.143,0.58,1.735c0.055,0.208,0.006,0.427-0.104,0.697c-0.261,0.021-0.476-0.04-0.676-0.14   c-1.294-0.658-2.577-1.345-3.871-2.007c-0.162-0.078-0.354-0.128-0.556-0.097c-0.032,0.15-0.023,0.376,0.011,0.556   c0.631,3.342,0.555,6.602-1.155,9.654c-0.615,1.1-1.297,2.149-2.415,2.846c-1.039,0.647-2.168,0.77-3.343,0.679   c-0.186-0.031-0.369-0.057-0.337-0.38c0.116-1.078-0.4-1.941-0.959-2.758c-0.896-1.307-2.143-2.243-3.499-3.034   c-0.067-0.04-0.149-0.058-0.31-0.116c0.051,0.217,0.074,0.372,0.119,0.519c0.368,1.242,0.467,2.498,0.2,3.771   c-0.271,1.289-0.436,2.615-0.86,3.854c-0.686,2.007-1.878,3.496-3.967,4.224c-0.047,0.017-0.299,0.084-0.421,0.077   c-0.032-0.285-0.045-0.518-0.062-0.827c-0.091-1.281-0.462-2.26-0.967-3.324c-0.525-1.106-1.081-2.202-1.699-3.259   c-1.16-1.98-2.878-3.254-5.105-3.827c-1.107-0.284-2.212-0.564-3.309-0.881c-0.371-0.108-0.714-0.319-1.039-0.467   c-0.456,0.931-0.849,1.882-1.367,2.758c-1.115,1.889-2.407,3.627-4.061,5.115c-2.562,2.302-5.476,4.011-8.589,5.396   c-1.735,0.771-3.537,1.389-5.301,2.097c-1.414,0.565-2.787,1.242-4.226,1.729c-1.971,0.666-3.959,1.321-5.989,1.75   c-1.982,0.42-4.021,0.701-6.045,0.771c-3.22,0.115-6.438-0.07-9.445-1.46c-2.079-0.959-3.749-2.355-4.695-4.497   c-0.375-0.846-0.444-1.746-0.502-2.661c-0.155-2.496-0.272-4.999-0.588-7.476c-0.215-1.682-0.73-3.327-1.132-4.983   c-0.312-1.286-0.714-2.553-0.972-3.848c-0.459-2.309-0.615-4.634,0.148-6.917c0.481-1.442,1.349-2.679,2.245-3.891   c0.698-0.945,1.397-1.888,2.064-2.854c0.314-0.453,0.233-0.501-0.263-0.746C8.771,46.019,7.823,45.592,6.998,45   c-0.764-0.548-1.17-1.443-1.419-2.345c-0.45-1.628-0.384-3.306-0.374-4.977c0.089-1.301,0.685-1.638,1.76-2.03   c1.568-0.542,3.05-0.775,4.6-0.976c1.555-0.136,2.678-0.107,4.019-0.083c0.991,0.019,1.979,0.132,2.968,0.227   c0.362,0.035,0.494-0.117,0.651-0.431c1.053-2.116,2.051-4.27,3.253-6.301c0.851-1.437,2.117-2.571,3.547-3.485   c0.752-0.479,1.483-0.993,2.216-1.504c0.073-0.05,0.123-0.193,0.118-0.289c-0.116-1.768,0.641-3.201,1.719-4.514   c1.661-2.025,3.828-3.272,6.274-4.099c1.984-0.67,4.008-1.242,6.094-1.365c2.568-0.151,4.827-0.363,7.971,0.016   c1.418,0.208,2.592,0.391,3.956,0.759c1.914,0.516,3.77,1.232,5.651,1.864c1.851,0.622,3.68,1.317,5.555,1.851   c2.037,0.58,4.11,1.029,6.177,1.502c1.979,0.454,3.991,0.62,6.006,0.358c2.187-0.283,4.32-0.816,6.361-1.674   c0.668-0.281,1.342-0.542,2.018-0.805c0.732-0.285,1.132-0.021,1.132,0.755c-0.006,2.058-0.632,3.964-1.635,5.713   c-0.703,1.226-1.648,2.315-2.485,3.464c-0.095,0.129-0.194,0.255-0.384,0.501c1.013-0.088,1.898-0.106,2.762-0.252   c1.237-0.209,2.457-0.508,3.682-0.777c0.438-0.096,0.754,0.131,0.75,0.594c-0.004,0.726-0.348,1.329-0.735,1.911   c-0.089,0.136-0.419,0.533-0.521,0.688c0.528-0.118,1.261-0.284,1.789-0.408c0.803-0.188,1.603-0.387,2.407-0.565   c0.137-0.031,0.357-0.029,0.425,0.052c0.083,0.097,0.091,0.315,0.042,0.448c-0.131,0.356-0.274,0.715-0.476,1.035   c-1.186,1.898-2.515,3.611-4.317,4.622c-0.057,0.03-0.333,0.215-0.407,0.277c0.735,0.537,1.595,0.647,2.418,0.841   c0.932,0.22,1.865,0.225,2.795-0.083c0.308-0.102,0.651-0.125,0.979-0.132c0.499-0.012,0.648,0.25,0.338,0.653   c-0.323,0.415-0.702,0.795-1.1,1.141c-1.961,1.703-4.121,3.103-6.553,4.205c0.182,0.219,0.322,0.415,0.487,0.586   c1.213,1.264,2.495,2.47,3.622,3.807c0.603,0.717,0.957,1.651,1.393,2.503c0.225,0.44,0.352,0.844,0.519,1.312   c0.061,0.251,0.088,0.372,0.08,0.565c-0.151-0.023-0.309-0.03-0.451-0.08c-0.419-0.139-0.832-0.298-1.28-0.461   c0.421,0.812,0.756,1.603,1.216,2.313c0.447,0.692,1.024,1.3,1.59,2.003c-1.061,0.347-2.108,0.545-3.168,0.201   c-0.784-0.256-1.53-0.624-2.294-0.939C88.464,53.081,88.19,52.976,87.791,52.818z M12.167,50.939   c-0.349,0.413-0.742,0.782-1.021,1.223c-0.644,1.016-1.218,2.077-1.848,3.101c-0.757,1.231-0.987,2.567-0.656,3.946   c0.496,2.074,1.11,4.115,1.629,6.183c0.304,1.215,0.546,2.443,0.766,3.676c0.171,0.957,0.32,1.925,0.382,2.896   c0.072,1.103,0.041,2.209,0.044,3.315c0.004,1.421,0.004,2.854,1.08,3.966c0.764,0.787,1.629,1.45,2.676,1.852   c2.247,0.864,4.568,1.255,6.964,1.006c1.608-0.166,3.209-0.428,4.804-0.698c1.205-0.202,2.417-0.413,3.589-0.752   c2.382-0.688,4.75-1.43,7.104-2.213c1.46-0.482,2.898-1.044,4.32-1.632c1.605-0.664,3.193-1.375,4.766-2.112   c1.061-0.497,2.136-0.994,3.105-1.644c0.924-0.62,1.748-1.406,2.564-2.173c1.082-1.011,2.1-2.119,2.635-3.513   c0.671-1.74,1.294-3.516,1.724-5.329c0.582-2.451,0.964-4.95,1.422-7.431c0.069-0.368,0.193-0.662,0.615-0.617   c0.409,0.045,0.795,0.175,0.82,0.692c0.012,0.264,0.011,0.528,0.021,0.791c0.025,0.671-0.117,1.407,0.386,1.946   c1.022,1.09,2.698,1.24,3.947,0.405c2.003-1.337,3.287-3.246,4.21-5.414c1.065-2.502,1.181-5.041,0.069-7.57   c-0.473-1.073-1.149-2.011-2.318-2.377c-1.736-0.543-3.23-0.051-4.462,1.261c-0.642,0.683-1.175,1.431-1.424,2.359   c-0.067,0.251-0.197,0.493-0.335,0.716c-0.471,0.767-1.185,1.124-2.061,1.026c-0.825-0.091-1.288-0.666-1.449-1.438   c-0.128-0.627-0.201-1.173-0.229-1.911c-0.025-0.256-0.004-0.515-0.004-0.789c-0.398-0.023-0.728-0.041-1.058-0.063   c-1.651-0.106-3.305-0.208-4.956-0.328c-0.354-0.026-0.474,0.132-0.592,0.438c-0.32,0.832-0.67,1.651-1.04,2.461   c-0.226,0.498-0.542,0.763-1.139,1.041c-1.027,0.377-1.958,0.652-2.962,0.766c-2.226,0.25-4.467,0.385-6.705,0.524   c-0.971,0.061-1.951-0.016-2.924,0.021c-1.739,0.067-3.38-0.399-4.855-1.207c-1.861-1.018-2.979-2.685-3.42-4.802   c-0.107-0.513-0.387-1.133-0.789-1.413c-1.259-0.873-2.319-0.511-3.076,0.831c-0.519,0.921-1.094,1.812-1.682,2.692   c-0.697,1.043-1.699,1.377-2.932,1.249c-1.018-0.106-2.048-0.154-3.07-0.123c-0.388,0.014-0.875,0.225-1.128,0.512   c-0.709,0.807-0.904,2.405,0.094,3.241c0.505,0.421,1.068,0.782,1.641,1.109c1.14,0.65,2.141,1.397,2.74,2.638   c0.52,1.078,1.391,1.841,2.591,2.159c0.095,0.024,0.179,0.101,0.268,0.152c-0.005,0.062-0.011,0.122-0.017,0.183   c-0.68,0.019-1.362,0.089-2.039,0.047c-1.633-0.104-2.99-0.81-3.87-2.193C14.345,52.462,13.305,51.694,12.167,50.939z    M88.08,45.826c0.031-0.019-0.71-0.716-1.136-0.971c-1.103-0.562-2.224-1.103-3.369-1.572c-2.272-0.931-4.633-1.555-7.037-2.052   c-1.143-0.237-2.295-0.539-3.373-0.982c-2.326-0.956-4.575-2.114-7.123-2.393c-0.406-0.044-0.822,0.007-1.232-0.007   c-0.178-0.006-0.355-0.063-0.533-0.097c0.096-0.193,0.159-0.415,0.298-0.565c0.101-0.105,0.301-0.129,0.461-0.156   c0.996-0.167,1.929,0.168,2.873,0.4c1.139,0.279,2.262,0.668,3.415,0.847c2.249,0.347,4.511,0.677,6.778,0.831   c1.855,0.126,3.734,0.057,5.595-0.06c1.229-0.078,2.457-0.339,3.661-0.623c0.861-0.204,1.683-0.573,2.515-0.886   c0.1-0.037,0.211-0.163,0.23-0.282c-0.047-0.088-0.21-0.139-0.322-0.155c-0.245-0.04-0.494-0.045-0.742-0.065   c-1.274-0.103-2.547-0.237-3.695-0.855c-0.521-0.281-0.961-0.385-1.57-0.126c-2.094,0.888-4.272,0.75-6.442,0.316   c-0.601-0.12-1.169-0.386-1.739-0.929c0.723-0.046,1.315-0.057,1.897-0.127c1.312-0.155,2.645-0.239,3.923-0.539   c1.218-0.286,2.399-0.757,3.558-1.245c0.984-0.415,1.919-0.957,2.86-1.472c0.175-0.097,0.362-0.306,0.479-0.605   c-0.245,0-0.324-0.004-0.404,0c-1.235,0.07-2.328,0.535-3.401,1.127c-0.519,0.285-1.141,0.391-1.731,0.517   c-0.32,0.068-0.695-0.068-0.722-0.431c-0.01-0.157,0.326-0.383,0.545-0.502c0.9-0.49,1.827-0.932,2.724-1.429   c0.516-0.286,0.881-0.72,0.989-1.405c-0.247,0.032-0.439,0.045-0.627,0.083c-0.958,0.188-1.904,0.469-2.869,0.556   c-2.424,0.216-4.852,0.405-7.284,0.489c-1.429,0.049-2.848-0.243-4.051-1.108c-0.936-0.672-1.822-1.408-2.727-2.119   c-0.015-0.011,0.002-0.062,0.01-0.165c0.241,0,0.504-0.054,0.734,0.01c0.749,0.207,1.488,0.45,2.228,0.693   c1.694,0.558,3.369,0.604,4.944-0.334c1.436-0.854,2.857-1.742,4.234-2.69c0.659-0.454,1.301-1.009,1.76-1.655   c0.594-0.844,1.002-1.819,1.474-2.746c0.146-0.282,0.234-0.592,0.372-0.947c-2.352,0.928-4.586,1.858-7.031,2.204   c-2.252,0.32-4.489,0.369-6.733,0.095c-0.963-0.118-1.946-0.271-2.854-0.591c-2.246-0.792-4.441-1.726-6.684-2.533   c-1.976-0.713-3.986-1.329-5.978-1.993c-2.443-0.815-4.96-1.123-7.522-1.199c-2.096-0.063-4.165,0.156-6.241,0.407   c-2.485,0.299-4.814,1.057-7.021,2.205c-1.216,0.632-2.13,1.581-2.591,2.895c-0.447,1.274,0.065,2.108,1.398,2.252   c2.419,0.26,4.84,0.506,7.265,0.716c3.333,0.289,6.675,0.481,10.002,0.824c2.115,0.218,4.186,0.725,5.966,1.99   c1.182,0.837,2.123,1.873,2.564,3.308c0.504,1.631,0.447,3.288,0.182,4.923c-0.271,1.665-0.715,3.301-1.08,4.95   c-0.049,0.222-0.087,0.446-0.133,0.68c0.883,0.344,1.725,0.689,2.58,0.99c0.184,0.065,0.452,0.038,0.631-0.049   c1.065-0.523,2.17-0.912,3.354-0.997c1.097-0.078,2.072,0.391,3.029,0.834c2.438,1.132,5.001,1.841,7.626,2.349   c0.169,0.032,0.456,0.088,0.486,0.203c0.023,0.178-0.355,0.204-0.535,0.205c-0.528,0-1.058-0.043-1.584-0.085   c-0.77-0.061-1.54-0.107-2.303-0.214c-0.612-0.085-1.215-0.255-1.866-0.397c1.163,2.354,1.291,4.811,1.058,7.29   c0.069,0.044,0.093,0.065,0.125,0.076c3.415,1.118,6.057,3.33,8.412,5.948c1.269,1.406,2.195,3.03,2.984,4.731   c0.973,2.099,1.721,4.272,1.686,6.633c-0.005,0.392-0.091,0.784-0.152,1.287c0.23-0.319,0.347-0.497,0.498-0.729   c0.074-0.109,0.172-0.28,0.226-0.403c0.932-2.06,0.894-4.203,0.546-6.371c-0.217-1.353-0.667-2.622-1.312-3.831   c-1.112-2.09-2.57-3.802-4.912-4.577c-0.17-0.059-0.343-0.132-0.486-0.235c-0.078-0.055-0.16-0.237-0.129-0.282   c0.062-0.089,0.215-0.182,0.311-0.166c0.717,0.122,1.47,0.162,2.132,0.427c1.811,0.723,3.588,1.53,5.365,2.336   c0.707,0.32,1.379,0.722,2.074,1.073c0.1,0.049,0.308,0.103,0.359,0.034c0.018-0.104-0.091-0.245-0.173-0.333   c-0.256-0.282-0.543-0.535-0.796-0.819c-0.449-0.506-0.861-1.046-1.328-1.539c-1.065-1.126-2.395-1.871-3.759-2.562   c-1.651-0.837-3.396-1.388-5.213-1.734c-1.083-0.201-1.654-0.867-1.269-1.019c0.258-0.027,0.471-0.053,0.687-0.054   c0.461-0.001,0.927,0.023,1.388,0.013c1.44-0.034,2.886-0.175,4.322-0.104c1.77,0.088,3.52,0.393,5.152,1.155   c0.567,0.265,1.138,0.527,1.812,0.838c-0.109-0.179-0.147-0.252-0.194-0.317c-0.954-1.348-2.315-2.258-3.568-3.275   c-0.973-0.789-2.229-0.957-3.425-1.204c-1.197-0.246-2.401-0.452-3.597-0.709c-0.17-0.037-0.5-0.181-0.44-0.417   c0.098-0.179,0.399-0.157,0.598-0.155c0.606,0.005,1.222,0.136,1.817,0.066c1.706-0.201,3.373-0.083,5.011,0.422   C86.148,45.139,87.178,45.523,88.08,45.826z M56.541,40.048c0.035-0.276,0.079-0.516,0.128-0.758   c0.477-2.407,0.81-4.823,0.566-7.285c-0.203-2.058-1.113-3.61-3.128-4.386c-2.588-0.998-5.268-1.51-8.036-1.573   c-2.052-0.047-4.105-0.053-6.158-0.102c-0.758-0.018-1.513-0.116-2.27-0.162c-0.891-0.054-1.789-0.033-2.668-0.149   c-1.125-0.15-2.288-0.267-3.337-0.659c-0.721-0.27-1.245-0.189-1.928,0.104c-0.19,0.095-0.551,0.271-0.657,0.319   c-1.408,0.674-2.19,1.413-3.199,2.573c-1.173,1.348-2.017,2.912-2.754,4.526c-0.417,0.912-0.754,1.858-1.134,2.808   c0.902,0.351,1.625,0.768,1.844,1.482c0.786,0.15,1.455,0.288,2.125,0.402c0.139,0.023,0.356,0.022,0.426-0.062   c0.684-0.809,1.666-1.024,2.604-1.226c1.199-0.224,2.002-0.25,2.997-0.333c2.971-0.202,4.426-0.139,6.635-0.048   c1.726,0.071,3.452,0.264,5.164,0.508c1.333,0.19,2.653,0.506,3.958,0.839c0.873,0.222,1.61,0.688,1.957,1.603   c0.032,0.085,0.197,0.146,0.312,0.167c1.231,0.25,2.469,0.477,3.697,0.739C54.637,39.579,55.554,39.813,56.541,40.048z    M72.515,74.699c0.103-0.261,0.243-0.559,0.337-0.871c0.094-0.315,0.138-0.646,0.213-0.966c0.693-3.032,0.39-5.885-1.727-8.3   c-0.464-0.532-1.274-0.777-1.951-1.104c-1.781-0.858-3.576-1.696-5.373-2.522c-0.175-0.077-0.446-0.069-0.625,0.008   c-0.746,0.333-1.516,0.499-2.315,0.326c-0.425-0.093-0.825-0.295-1.231-0.447c-0.245,0.729-0.187,1.4,0.375,1.94   c0.422,0.404,0.856,0.831,1.359,1.114c1.415,0.792,2.854,1.537,4.305,2.263c2.242,1.123,3.9,2.824,5.016,5.052   C71.471,72.335,71.974,73.518,72.515,74.699z M81.707,65.883c0-0.147,0.02-0.3-0.004-0.443c-0.323-1.975-1.054-3.784-2.243-5.396   c-1.831-2.485-4.027-4.574-6.774-6.025c-0.853-0.447-1.762-0.787-2.574-1.144c-0.612,1.133-1.175,2.171-1.78,3.291   C74.063,57.635,78.871,60.4,81.707,65.883z M79.136,65.564c-0.127-0.191-0.237-0.4-0.386-0.573   c-0.844-0.971-1.582-2.079-2.568-2.873c-2.421-1.953-5.161-3.315-8.246-3.94c-0.676-0.138-1.198-0.042-1.66,0.455   c-0.245,0.264-0.492,0.522-0.767,0.813c0.202,0.099,0.396,0.226,0.608,0.292c1.437,0.441,2.859,0.946,4.32,1.285   c2.173,0.5,4.194,1.311,6.032,2.562C77.381,64.205,78.244,64.898,79.136,65.564z M57.448,43.89   c-0.222,0.871-0.119,1.263,0.313,1.384c0.472,0.131,1.022-0.352,1.257-1.145C58.501,44.051,57.989,43.972,57.448,43.89z"></path><path fill-rule="evenodd" clip-rule="evenodd" d="M16.576,68.093c-0.699-1.067-1.435-2.029-1.986-3.088   c-0.439-0.839-0.634-1.802-0.976-2.696c-0.1-0.261-0.292-0.524-0.513-0.696c-1.375-1.056-1.979-2.941-1.357-4.73   c0.152-0.436,0.445-0.823,0.707-1.292c0,0.612-0.047,1.116,0.01,1.609c0.103,0.871,0.627,1.467,1.444,1.732   c1.373,0.451,2.786,0.479,4.221,0.348c1.598-0.146,3.155-0.468,4.603-1.14c1.541-0.714,3.021-1.564,4.531-2.352   c1.007-0.522,2.006-1.062,3.031-1.546c1.044-0.492,2.092-1,3.183-1.367c2.065-0.697,4.145-1.371,6.39-0.815   c3.634,0.897,6.026,3.541,6.553,7.098c0.282,1.898-0.088,3.735-1.043,5.467c-1.397,2.529-3.477,4.343-5.805,5.953   c-2.324,1.607-4.796,2.938-7.352,4.12c-2.834,1.314-5.78,2.296-8.885,2.721c-2.006,0.278-4.024,0.39-6.029-0.071   c-1.582-0.365-2.57-1.306-2.996-2.896c-0.442-1.65-0.144-2.454,1.313-3.466c0.14-0.095,0.309-0.282,0.311-0.429   C15.94,69.627,16.105,68.747,16.576,68.093z M15.193,62.896c0.036,0.215,0.07,0.285,0.137,0.455c0.53,1.34,1.016,2.699,2.054,3.763   c1.122,1.15,2.518,1.405,4.021,1.181c1.475-0.219,2.435-1.282,3.371-2.302c0.792-0.863,0.746-0.907,1.833-0.487   c0.062,0.023,0.122,0.05,0.185,0.072c1.218,0.463,2.5,0.59,3.761,0.403c1.861-0.28,3.448-1.132,4.554-2.727   c0.23-0.337,0.501-0.47,0.924-0.334c0.39,0.128,0.805,0.198,1.214,0.241c0.962,0.104,1.961,0.183,2.781-0.425   c1.269-0.939,2.169-2.179,2.592-3.72c0.074-0.267,0.039-0.588-0.034-0.861c-0.243-0.919-0.914-1.541-1.654-2.044   c-1.044-0.708-2.222-1.213-3.501-0.887c-1.229,0.311-2.464,0.696-3.595,1.254c-1.641,0.812-3.194,1.802-4.776,2.726   c-1.455,0.852-2.838,1.854-4.363,2.548c-2.098,0.959-4.337,1.537-6.685,1.428C17.11,63.138,16.127,62.993,15.193,62.896z    M43.106,60.187c-0.11,0.194-0.133,0.256-0.184,0.369c-1.15,2.569-4.236,4.554-7.146,4.094c-0.418-0.066-0.706,0.082-1.045,0.295   c-0.959,0.608-1.903,1.293-2.951,1.694c-1.863,0.709-3.812,0.571-5.729,0.112c-0.414-0.101-0.604-0.004-0.827,0.352   c-0.745,1.19-1.743,2.079-3.174,2.354c-1.171,0.228-2.314,0.1-3.411-0.357c-0.36-0.15-0.534-0.112-0.727,0.262   c-0.633,1.233-0.645,2.521-0.382,3.823c0.057,0.327,0.211,0.52,0.533,0.618c0.993,0.234,2,0.479,3.012,0.537   c1.926,0.107,3.76-0.497,5.597-0.973c2.409-0.621,4.72-1.532,6.911-2.701c2.517-1.346,4.95-2.835,6.96-4.91   c1.057-1.091,2.01-2.252,2.478-3.733C43.201,61.454,43.278,60.879,43.106,60.187z"></path><path fill-rule="evenodd" clip-rule="evenodd" d="M21.899,53.733c-1.122-0.161-1.899-0.588-2.685-1.604   c-0.625-0.808-1.334-1.47-2.239-1.927c-0.298-0.163-0.447-0.449-0.432-0.689c0.026-0.403,0.423-0.376,0.747-0.341   c0.772,0.085,1.523,0.287,2.096,0.815c1.025,0.947,1.839,1.181,3.045,1.602c0.343,0.096,0.71,0.179,0.758,0.194   c0.596,0.184,0.88,0.577,0.835,1.005c-0.053,0.505-0.604,0.938-1.225,0.958C22.515,53.766,22.217,53.772,21.899,53.733z"></path><path fill-rule="evenodd" clip-rule="evenodd" d="M25.651,50.477c1.357,0.814,1.708,2.873,0.658,3.868   c-0.67,0.635-1.533,0.904-2.457,0.888c-0.174-0.003-0.451-0.035-0.517-0.307c0.001-0.268,0.231-0.359,0.397-0.457   c0.295-0.175,0.653-0.246,0.942-0.429c0.964-0.605,1.176-1.376,0.61-2.369c-0.323-0.567-1.048-1.371-1.132-1.612   C24.115,49.84,25.208,50.211,25.651,50.477z"></path></g></svg>