<svg xmlns:x="http://ns.adobe.com/Extensibility/1.0/" xmlns:i="http://ns.adobe.com/AdobeIllustrator/10.0/" xmlns:graph="http://ns.adobe.com/Graphs/1.0/" xmlns="http://www.w3.org/2000/svg" xmlns:xlink="http://www.w3.org/1999/xlink" xmlns:a="http://ns.adobe.com/AdobeSVGViewerExtensions/3.0/" version="1.1" x="0px" y="0px" viewBox="0 0 100 100" enable-background="new 0 0 100 100" xml:space="preserve"><path d="M50.501,3.5c-25.915,0-47,21.085-47,47s21.085,47,47,47c16.572,0,32.1-8.914,40.522-23.266l1.401-2.388l-2.731-0.447  c-4.017-0.658-7.977,0.235-12.112,2.746c-4.369,2.658-9.218,2.654-13.587-0.001c-6.451-3.922-13.367-3.926-19.825,0  c-2.026,1.233-4.521,1.885-7.214,1.886c-2.689,0-5.344-0.685-7.283-1.88c-4.061-2.499-6.684-6.009-6.684-8.94  c0-3.053,2.465-3.29,3.221-3.29c0.577,0,1.141,0.128,1.508,0.343c2.627,1.537,5.945,2.383,9.345,2.383  c3.362,0,6.503-0.83,9.081-2.399c5.322-3.236,10.193-3.239,15.521,0c2.75,1.672,5.814,2.556,8.863,2.556  c3.087,0,6.066-0.859,8.854-2.556c2.108-1.281,5.008-2.046,7.756-2.046c2.5,0,4.698,0.62,6.187,1.747l2.351,1.779l0.647-2.877  c0.783-3.473,1.18-6.955,1.18-10.35C97.501,24.585,76.416,3.5,50.501,3.5z M93.11,57.497c-1.743-0.722-3.765-1.095-5.974-1.095  c-3.465,0-7.011,0.946-9.729,2.599c-4.376,2.661-9.405,2.653-13.771,0c-6.459-3.928-13.012-3.926-19.468,0  c-1.984,1.208-4.441,1.846-7.107,1.846c-2.695,0-5.403-0.679-7.427-1.862c-0.951-0.557-2.167-0.862-3.426-0.862  c-3.381,0-7.02,2.218-7.02,7.088c0,4.286,3.254,8.951,8.49,12.175c2.56,1.576,5.853,2.444,9.275,2.444  c3.39-0.001,6.566-0.845,9.188-2.439c5.253-3.194,10.635-3.188,15.879,0c5.579,3.391,11.961,3.393,17.533,0.001  c2.239-1.359,4.358-2.132,6.444-2.341C77.97,86.63,64.648,93.702,50.501,93.702C26.68,93.702,7.299,74.321,7.299,50.5  S26.68,7.298,50.501,7.298S93.703,26.679,93.703,50.5C93.703,52.797,93.505,55.141,93.11,57.497z"></path><path d="M33.885,27.949c-7.199,0-13.056,5.856-13.056,13.056s5.856,13.056,13.056,13.056S46.94,48.204,46.94,41.005  S41.084,27.949,33.885,27.949z M33.885,51.687c-5.89,0-10.682-4.792-10.682-10.682s4.792-10.682,10.682-10.682  s10.682,4.792,10.682,10.682S39.774,51.687,33.885,51.687z"></path><path d="M33.885,32.697c-4.581,0-8.308,3.727-8.308,8.308c0,4.582,3.727,8.309,8.308,8.309c4.582,0,8.309-3.727,8.309-8.309  C42.193,36.424,38.467,32.697,33.885,32.697z M33.885,46.939c-3.272,0-5.935-2.662-5.935-5.935s2.662-5.935,5.935-5.935  s5.935,2.662,5.935,5.935S37.157,46.939,33.885,46.939z"></path><path d="M33.885,37.444c-1.963,0-3.561,1.598-3.561,3.561s1.598,3.561,3.561,3.561s3.561-1.598,3.561-3.561  S35.848,37.444,33.885,37.444z M33.885,42.192c-0.654,0-1.187-0.532-1.187-1.188c0-0.654,0.532-1.187,1.187-1.187  s1.187,0.532,1.187,1.187C35.071,41.66,34.539,42.192,33.885,42.192z"></path><path d="M67.117,20.828c-8.508,0-15.43,6.922-15.43,15.43c0,8.507,6.922,15.429,15.43,15.429s15.43-6.922,15.43-15.429  C82.547,27.75,75.625,20.828,67.117,20.828z M67.117,49.313c-7.199,0-13.056-5.856-13.056-13.056s5.856-13.056,13.056-13.056  s13.056,5.856,13.056,13.056S74.316,49.313,67.117,49.313z"></path><path d="M67.117,25.576c-5.89,0-10.682,4.792-10.682,10.682s4.792,10.682,10.682,10.682s10.682-4.792,10.682-10.682  S73.007,25.576,67.117,25.576z M67.117,44.565c-4.582,0-8.309-3.727-8.309-8.308c0-4.582,3.727-8.309,8.309-8.309  c4.581,0,8.308,3.727,8.308,8.309C75.425,40.839,71.698,44.565,67.117,44.565z"></path><path d="M67.117,30.323c-3.272,0-5.935,2.662-5.935,5.935s2.662,5.935,5.935,5.935s5.935-2.662,5.935-5.935  S70.39,30.323,67.117,30.323z M67.117,39.818c-1.963,0-3.561-1.598-3.561-3.561s1.598-3.561,3.561-3.561s3.561,1.598,3.561,3.561  S69.08,39.818,67.117,39.818z"></path></svg>